<?xml version="1.0" encoding="UTF-8"?><svg id="Layer_1" xmlns="http://www.w3.org/2000/svg" viewBox="0 0 990.12 151.27"><defs><style>.cls-1{fill:#49c6e6;}.cls-1,.cls-2,.cls-3,.cls-4,.cls-5{fill-rule:evenodd;}.cls-2{fill:#0aa2c7;}.cls-6{fill:#fbac31;}.cls-3{fill:#05b0d4;}.cls-4{fill:#1dc1e1;}.cls-5{fill:#238eb2;}</style></defs><path class="cls-6" d="M576.3,149.26h23.55l-63.36-83.35L595.29,0h-23.83l-66.37,73.76V0h-19.63V149.26h19.63v-50.48l18.26-18.9,52.95,69.38Z"/><path class="cls-6" d="M702.29,0V101.15c0,10.83-2.95,19.22-8.86,25.15-5.9,5.93-14.42,8.9-25.56,8.9s-19.49-2.98-25.42-8.95c-5.93-5.96-8.9-14.36-8.9-25.2V0h-19.54V101.7c.12,15.46,5.04,27.59,14.74,36.38,9.71,8.8,22.75,13.19,39.12,13.19l5.2-.18c15.03-1.1,26.94-6.12,35.74-15.06,8.79-8.95,13.22-20.45,13.28-34.51V0h-19.81Z"/><path class="cls-6" d="M840.13,149.26h21.18v-1.19l-35.06-63.45c8.95-3.41,15.93-8.57,20.95-15.47,5.02-6.91,7.53-14.99,7.53-24.24,0-14.67-4.53-25.82-13.6-33.46-9.07-7.64-22-11.46-38.8-11.46h-49.39V149.26h19.72v-60.34h35.15l32.32,60.34ZM772.67,16.16h30.22c10.35,.06,18.27,2.56,23.78,7.49,5.51,4.93,8.26,12.02,8.26,21.27,0,8.46-2.89,15.22-8.67,20.27-5.78,5.05-13.54,7.58-23.28,7.58h-30.31V16.16Z"/><path class="cls-6" d="M923.48,149.26c13.45-.12,25.21-3.03,35.28-8.72,10.07-5.69,17.82-13.83,23.23-24.42,5.42-10.59,8.12-22.91,8.12-36.97v-9.59c-.06-13.69-2.8-25.84-8.22-36.42-5.42-10.59-13.12-18.76-23.1-24.51-9.98-5.75-21.48-8.63-34.51-8.63h-42.08V149.26h41.26Zm1.37-133.1c14.61,.18,25.9,4.96,33.87,14.33,7.97,9.37,11.96,22.55,11.96,39.53v8.67c0,17.47-4.22,30.92-12.64,40.35-8.43,9.43-20.25,14.15-35.47,14.15h-20.72V16.16h23.01Z"/><path class="cls-4" d="M356.13,.82h72.21V33.76h-72.21V.82Z"/><path class="cls-2" d="M394.98,33.76L427.92,.82V149.89h-32.94V33.76Z"/><path class="cls-3" d="M429.19,.82h-2.96l-32.94,32.94h2.96L429.19,.82Z"/><path class="cls-1" d="M427.92,.82h42.65V23.76c0,5.52-4.48,10-10,10h-65.59L427.92,.82Z"/><path class="cls-4" d="M246.21,116.95h94.29l-33.2,32.8h-71.07l-.03-22.79c0-5.53,4.47-10.01,10-10.01Z"/><path class="cls-4" d="M236.24,59.64h71.07l33.03,31.98h-71.07l-33.03-31.98Z"/><path class="cls-4" d="M269.27,.68l71.23,.14V23.76c0,5.52-4.48,10-10,10h-94.3L269.27,.68Z"/><path class="cls-2" d="M236.2,33.76L269.27,.68V91.63l-33.03-31.98-.04-25.88Z"/><path class="cls-2" d="M307.15,59.52l33.2,32.11,.16,25.32-33.36,32.94V59.52Z"/><path class="cls-2" d="M151.32,149.47l-33.36-32.52,.28-83.19L151.32,.68h70.9s0,116.26,0,116.26l-33.74,32.53h-37.16Zm36.87-115.81h-37.04V120.61h37.04V33.66Z"/><path class="cls-4" d="M151.29,.68h62.06V23.66c0,5.52-4.48,10-10,10H118.25L151.29,.68Z"/><path class="cls-4" d="M117.96,116.95h104.3l-33.78,32.94h-37.16l-33.36-32.94Z"/><path class="cls-2" d="M71.09,.68h33.02V149.6h-33.02V.68Z"/><path class="cls-4" d="M.15,.68H33.04V96.61H.15V.68Z"/><path class="cls-2" d="M33.08,59.52L.15,91.61l-.15,57.98H33.03l.05-90.08Z"/><path class="cls-3" d="M34.77,59.52h-3.38L.15,89.92v1.69H1.84L34.77,59.52Z"/><path class="cls-1" d="M33.08,59.52h62.08l-.04,22.2c-.01,5.52-4.48,9.98-10,9.98H.15L33.08,59.52Z"/><polygon class="cls-5" points="394.98 33.76 428.34 33.76 427.92 46.15 394.98 33.76"/><polygon class="cls-5" points=".15 91.61 33.04 91.7 33.04 104.68 .15 91.61"/><polygon class="cls-5" points="118.25 33.66 151.15 33.74 151.15 46.73 118.25 33.66"/></svg>