<?xml version="1.0" encoding="UTF-8"?><svg id="Layer_1" xmlns="http://www.w3.org/2000/svg" viewBox="0 0 198.43 198.43"><defs><style>.cls-1{stroke-width:0px;}</style></defs><path class="cls-1" d="M175.61,94.54c-1,5.56-1.75,8.55-2.91,12.78-5.49,20.18-18.87,32.72-37.99,39.82-6.86,2.55-13.99,3.94-21.25,5.02,7.33,2.24,14.72,1.13,22.51-.12-.82,1.88-2.15,2.36-3.18,3.09-18.49,13.03-38.78,16.99-60.8,11.84-2.05-.48-2.99-.46-2.66,2.06.26,1.97.05,4.01-.21,6.27-5.71-7.78-13.2-12.34-22.88-13.22,7.57-2.68,14.92-5.4,21.94-8.92,16.09-8.07,30.26-18.62,41.77-32.58.42-.51.72-1.12,1.07-1.68.26-.32.53-.63.79-.95.49-.37.86-.81.82-1.47.16-.15.32-.31.48-.46l-.3-.25-.24.65c-.66.07-.93.59-1.22,1.09-.28.29-.55.58-.83.87-9.97,9.87-21.07,18.21-33.5,24.74-14.69,7.72-30.27,12.61-46.79,14.43-2.29.25-4.58.47-6.88.66-.55.05-1.3.06-1.27-.72.01-.34.53-.85.92-.95,1.2-.34,2.45-.49,3.66-.76,14.81-3.34,20.92-20.52,11.54-32.46-.74-.94-1.65-1.79-1.84-3.42,4.91,1.79,8.7,4.85,12.71,7.54.07.03.13.05.2.08-.08-.01-.16-.02-.24-.04.23-5.65-.34-11.32.49-16.97,1.89-12.78,6.85-24.15,15.07-34.1.43-.52.89-1.01,1.38-1.47.34-.32.71-.73,1.25-.46.53.26.44.82.38,1.26-.26,2-.6,3.99-.86,5.99-.84,6.56-.19,13.05,1.11,19.49.07.33.31.63.77,1.54.36-11.45,1.91-22.04,4.7-32.44,2.68-9.99,6.47-19.49,12.4-28.06,10.46-15.11,24.86-21.29,42.9-18.53,23.59,3.62,37.22,18.42,44.02,40.42,1.26,4.07,1.99,8.31,2.96,12.47,1,5.47,1,11.47,0,17.91Z"/></svg>