<?xml version="1.0" standalone="no"?>
<!DOCTYPE svg PUBLIC "-//W3C//DTD SVG 20010904//EN"
 "http://www.w3.org/TR/2001/REC-SVG-20010904/DTD/svg10.dtd">
<svg version="1.0" xmlns="http://www.w3.org/2000/svg"
 width="401.000000pt" height="401.000000pt" viewBox="0 0 401.000000 401.000000"
 preserveAspectRatio="xMidYMid meet">
<metadata>
Created by potrace 1.14, written by Peter Selinger 2001-2017
</metadata>
<g transform="translate(0.000000,401.000000) scale(0.100000,-0.100000)"
fill="#000000" stroke="none">
<path d="M3245 3844 c-22 -23 -114 -119 -205 -214 -91 -94 -191 -200 -224
-233 -32 -34 -138 -145 -236 -247 -98 -102 -206 -214 -240 -250 -34 -36 -146
-152 -249 -259 -102 -106 -205 -213 -228 -237 l-41 -44 -208 302 c-114 167
-225 328 -246 358 -56 81 -100 123 -165 155 l-58 30 -247 0 -248 1 1 -1238 c1
-1145 2 -1238 17 -1239 10 0 151 -2 314 -4 275 -4 298 -3 299 13 0 9 1 252 1
539 1 495 2 524 19 539 34 31 102 15 149 -35 8 -9 35 -34 60 -55 58 -50 187
-166 260 -233 31 -29 69 -63 84 -74 21 -17 27 -28 23 -48 -2 -14 -46 -161 -96
-326 -51 -165 -114 -372 -141 -460 -27 -88 -68 -224 -93 -302 -24 -79 -41
-143 -37 -143 4 0 54 49 111 109 57 60 174 182 259 271 85 89 178 186 205 215
28 28 129 134 225 235 352 369 393 410 410 410 41 0 43 -17 43 -344 l0 -313
299 -1 298 -1 0 1240 0 1239 -180 0 c-99 0 -180 2 -180 4 0 3 65 156 145 342
79 186 144 338 142 339 -1 1 -20 -17 -42 -41z"/>
</g>
</svg>
